<mxfile host="app.diagrams.net" modified="2024-06-11T09:35:06.386Z" agent="Mozilla/5.0 (Windows NT 10.0; Win64; x64) AppleWebKit/537.36 (KHTML, like Gecko) Chrome/125.0.0.0 Safari/537.36" etag="4ZAfP6MwfBHjk4nBkA29" version="24.5.2" type="github">
  <diagram id="C5RBs43oDa-KdzZeNtuy" name="Page-1">
    <mxGraphModel dx="2181" dy="726" grid="1" gridSize="10" guides="1" tooltips="1" connect="1" arrows="1" fold="1" page="1" pageScale="1" pageWidth="827" pageHeight="1169" math="0" shadow="0">
      <root>
        <mxCell id="WIyWlLk6GJQsqaUBKTNV-0" />
        <mxCell id="WIyWlLk6GJQsqaUBKTNV-1" parent="WIyWlLk6GJQsqaUBKTNV-0" />
        <mxCell id="T-v2wSZh6R9Aq7Sud8xA-3" style="edgeStyle=orthogonalEdgeStyle;rounded=0;orthogonalLoop=1;jettySize=auto;html=1;entryX=0.5;entryY=0;entryDx=0;entryDy=0;" edge="1" parent="WIyWlLk6GJQsqaUBKTNV-1" source="WIyWlLk6GJQsqaUBKTNV-3" target="WIyWlLk6GJQsqaUBKTNV-7">
          <mxGeometry relative="1" as="geometry" />
        </mxCell>
        <mxCell id="T-v2wSZh6R9Aq7Sud8xA-6" style="edgeStyle=orthogonalEdgeStyle;rounded=0;orthogonalLoop=1;jettySize=auto;html=1;" edge="1" parent="WIyWlLk6GJQsqaUBKTNV-1" source="WIyWlLk6GJQsqaUBKTNV-3" target="T-v2wSZh6R9Aq7Sud8xA-4">
          <mxGeometry relative="1" as="geometry" />
        </mxCell>
        <mxCell id="T-v2wSZh6R9Aq7Sud8xA-11" style="edgeStyle=orthogonalEdgeStyle;rounded=0;orthogonalLoop=1;jettySize=auto;html=1;" edge="1" parent="WIyWlLk6GJQsqaUBKTNV-1" source="WIyWlLk6GJQsqaUBKTNV-3" target="T-v2wSZh6R9Aq7Sud8xA-8">
          <mxGeometry relative="1" as="geometry" />
        </mxCell>
        <mxCell id="T-v2wSZh6R9Aq7Sud8xA-12" style="edgeStyle=orthogonalEdgeStyle;rounded=0;orthogonalLoop=1;jettySize=auto;html=1;exitX=1;exitY=1;exitDx=0;exitDy=0;" edge="1" parent="WIyWlLk6GJQsqaUBKTNV-1" source="WIyWlLk6GJQsqaUBKTNV-3" target="T-v2wSZh6R9Aq7Sud8xA-5">
          <mxGeometry relative="1" as="geometry" />
        </mxCell>
        <mxCell id="T-v2wSZh6R9Aq7Sud8xA-14" style="edgeStyle=orthogonalEdgeStyle;rounded=0;orthogonalLoop=1;jettySize=auto;html=1;exitX=0;exitY=0;exitDx=0;exitDy=0;entryX=0.5;entryY=0;entryDx=0;entryDy=0;" edge="1" parent="WIyWlLk6GJQsqaUBKTNV-1" source="WIyWlLk6GJQsqaUBKTNV-3" target="T-v2wSZh6R9Aq7Sud8xA-13">
          <mxGeometry relative="1" as="geometry" />
        </mxCell>
        <mxCell id="WIyWlLk6GJQsqaUBKTNV-3" value="HOME PAGE" style="rounded=1;whiteSpace=wrap;html=1;fontSize=12;glass=0;strokeWidth=1;shadow=0;" parent="WIyWlLk6GJQsqaUBKTNV-1" vertex="1">
          <mxGeometry x="360" y="60" width="120" height="40" as="geometry" />
        </mxCell>
        <mxCell id="T-v2wSZh6R9Aq7Sud8xA-46" value="" style="edgeStyle=orthogonalEdgeStyle;rounded=0;orthogonalLoop=1;jettySize=auto;html=1;" edge="1" parent="WIyWlLk6GJQsqaUBKTNV-1" source="WIyWlLk6GJQsqaUBKTNV-7" target="T-v2wSZh6R9Aq7Sud8xA-45">
          <mxGeometry relative="1" as="geometry" />
        </mxCell>
        <mxCell id="WIyWlLk6GJQsqaUBKTNV-7" value="PRODUCTS" style="rounded=1;whiteSpace=wrap;html=1;fontSize=12;glass=0;strokeWidth=1;shadow=0;" parent="WIyWlLk6GJQsqaUBKTNV-1" vertex="1">
          <mxGeometry x="170" y="180" width="120" height="30" as="geometry" />
        </mxCell>
        <mxCell id="T-v2wSZh6R9Aq7Sud8xA-16" value="" style="edgeStyle=orthogonalEdgeStyle;rounded=0;orthogonalLoop=1;jettySize=auto;html=1;" edge="1" parent="WIyWlLk6GJQsqaUBKTNV-1" source="T-v2wSZh6R9Aq7Sud8xA-4" target="T-v2wSZh6R9Aq7Sud8xA-15">
          <mxGeometry relative="1" as="geometry" />
        </mxCell>
        <mxCell id="T-v2wSZh6R9Aq7Sud8xA-4" value="SIGN UP" style="rounded=1;whiteSpace=wrap;html=1;" vertex="1" parent="WIyWlLk6GJQsqaUBKTNV-1">
          <mxGeometry x="340" y="177.5" width="120" height="35" as="geometry" />
        </mxCell>
        <mxCell id="T-v2wSZh6R9Aq7Sud8xA-20" value="" style="edgeStyle=orthogonalEdgeStyle;rounded=0;orthogonalLoop=1;jettySize=auto;html=1;" edge="1" parent="WIyWlLk6GJQsqaUBKTNV-1" source="T-v2wSZh6R9Aq7Sud8xA-5" target="T-v2wSZh6R9Aq7Sud8xA-19">
          <mxGeometry relative="1" as="geometry" />
        </mxCell>
        <mxCell id="T-v2wSZh6R9Aq7Sud8xA-5" value="LOGIN" style="rounded=1;whiteSpace=wrap;html=1;" vertex="1" parent="WIyWlLk6GJQsqaUBKTNV-1">
          <mxGeometry x="520" y="175" width="120" height="45" as="geometry" />
        </mxCell>
        <mxCell id="T-v2wSZh6R9Aq7Sud8xA-31" value="" style="edgeStyle=orthogonalEdgeStyle;rounded=0;orthogonalLoop=1;jettySize=auto;html=1;" edge="1" parent="WIyWlLk6GJQsqaUBKTNV-1" source="T-v2wSZh6R9Aq7Sud8xA-8">
          <mxGeometry relative="1" as="geometry">
            <mxPoint x="740" y="265" as="targetPoint" />
          </mxGeometry>
        </mxCell>
        <mxCell id="T-v2wSZh6R9Aq7Sud8xA-33" value="" style="edgeStyle=orthogonalEdgeStyle;rounded=0;orthogonalLoop=1;jettySize=auto;html=1;" edge="1" parent="WIyWlLk6GJQsqaUBKTNV-1" source="T-v2wSZh6R9Aq7Sud8xA-8" target="T-v2wSZh6R9Aq7Sud8xA-32">
          <mxGeometry relative="1" as="geometry" />
        </mxCell>
        <mxCell id="T-v2wSZh6R9Aq7Sud8xA-8" value="CART" style="rounded=1;whiteSpace=wrap;html=1;" vertex="1" parent="WIyWlLk6GJQsqaUBKTNV-1">
          <mxGeometry x="680" y="180" width="120" height="30" as="geometry" />
        </mxCell>
        <mxCell id="T-v2wSZh6R9Aq7Sud8xA-10" style="edgeStyle=orthogonalEdgeStyle;rounded=0;orthogonalLoop=1;jettySize=auto;html=1;exitX=0.5;exitY=1;exitDx=0;exitDy=0;" edge="1" parent="WIyWlLk6GJQsqaUBKTNV-1" source="T-v2wSZh6R9Aq7Sud8xA-8" target="T-v2wSZh6R9Aq7Sud8xA-8">
          <mxGeometry relative="1" as="geometry" />
        </mxCell>
        <mxCell id="T-v2wSZh6R9Aq7Sud8xA-70" value="" style="edgeStyle=orthogonalEdgeStyle;rounded=0;orthogonalLoop=1;jettySize=auto;html=1;" edge="1" parent="WIyWlLk6GJQsqaUBKTNV-1" source="T-v2wSZh6R9Aq7Sud8xA-13" target="T-v2wSZh6R9Aq7Sud8xA-69">
          <mxGeometry relative="1" as="geometry" />
        </mxCell>
        <mxCell id="T-v2wSZh6R9Aq7Sud8xA-13" value="FAVORITES" style="rounded=1;whiteSpace=wrap;html=1;" vertex="1" parent="WIyWlLk6GJQsqaUBKTNV-1">
          <mxGeometry x="10" y="180" width="120" height="30" as="geometry" />
        </mxCell>
        <mxCell id="T-v2wSZh6R9Aq7Sud8xA-18" value="" style="edgeStyle=orthogonalEdgeStyle;rounded=0;orthogonalLoop=1;jettySize=auto;html=1;" edge="1" parent="WIyWlLk6GJQsqaUBKTNV-1" source="T-v2wSZh6R9Aq7Sud8xA-15" target="T-v2wSZh6R9Aq7Sud8xA-17">
          <mxGeometry relative="1" as="geometry" />
        </mxCell>
        <mxCell id="T-v2wSZh6R9Aq7Sud8xA-15" value="SIGUN UP FORM" style="ellipse;whiteSpace=wrap;html=1;rounded=1;" vertex="1" parent="WIyWlLk6GJQsqaUBKTNV-1">
          <mxGeometry x="360" y="270" width="80" height="80" as="geometry" />
        </mxCell>
        <mxCell id="T-v2wSZh6R9Aq7Sud8xA-81" style="edgeStyle=orthogonalEdgeStyle;rounded=0;orthogonalLoop=1;jettySize=auto;html=1;exitX=0;exitY=1;exitDx=0;exitDy=0;entryX=0;entryY=0.5;entryDx=0;entryDy=0;" edge="1" parent="WIyWlLk6GJQsqaUBKTNV-1" source="T-v2wSZh6R9Aq7Sud8xA-17" target="WIyWlLk6GJQsqaUBKTNV-3">
          <mxGeometry relative="1" as="geometry">
            <Array as="points">
              <mxPoint x="300" y="465" />
              <mxPoint x="300" y="120" />
              <mxPoint x="360" y="120" />
            </Array>
          </mxGeometry>
        </mxCell>
        <mxCell id="T-v2wSZh6R9Aq7Sud8xA-17" value="ADD TO DB" style="rhombus;whiteSpace=wrap;html=1;rounded=1;" vertex="1" parent="WIyWlLk6GJQsqaUBKTNV-1">
          <mxGeometry x="360" y="405" width="80" height="80" as="geometry" />
        </mxCell>
        <mxCell id="T-v2wSZh6R9Aq7Sud8xA-22" value="" style="edgeStyle=orthogonalEdgeStyle;rounded=0;orthogonalLoop=1;jettySize=auto;html=1;" edge="1" parent="WIyWlLk6GJQsqaUBKTNV-1" source="T-v2wSZh6R9Aq7Sud8xA-19" target="T-v2wSZh6R9Aq7Sud8xA-21">
          <mxGeometry relative="1" as="geometry" />
        </mxCell>
        <mxCell id="T-v2wSZh6R9Aq7Sud8xA-23" value="" style="edgeStyle=orthogonalEdgeStyle;rounded=0;orthogonalLoop=1;jettySize=auto;html=1;" edge="1" parent="WIyWlLk6GJQsqaUBKTNV-1" source="T-v2wSZh6R9Aq7Sud8xA-19" target="T-v2wSZh6R9Aq7Sud8xA-21">
          <mxGeometry relative="1" as="geometry" />
        </mxCell>
        <mxCell id="T-v2wSZh6R9Aq7Sud8xA-24" value="" style="edgeStyle=orthogonalEdgeStyle;rounded=0;orthogonalLoop=1;jettySize=auto;html=1;" edge="1" parent="WIyWlLk6GJQsqaUBKTNV-1" source="T-v2wSZh6R9Aq7Sud8xA-19" target="T-v2wSZh6R9Aq7Sud8xA-21">
          <mxGeometry relative="1" as="geometry" />
        </mxCell>
        <mxCell id="T-v2wSZh6R9Aq7Sud8xA-26" style="edgeStyle=orthogonalEdgeStyle;rounded=0;orthogonalLoop=1;jettySize=auto;html=1;exitX=0.5;exitY=1;exitDx=0;exitDy=0;entryX=0.75;entryY=0;entryDx=0;entryDy=0;" edge="1" parent="WIyWlLk6GJQsqaUBKTNV-1" source="T-v2wSZh6R9Aq7Sud8xA-19" target="T-v2wSZh6R9Aq7Sud8xA-25">
          <mxGeometry relative="1" as="geometry">
            <Array as="points">
              <mxPoint x="580" y="386" />
              <mxPoint x="630" y="386" />
              <mxPoint x="630" y="410" />
            </Array>
          </mxGeometry>
        </mxCell>
        <mxCell id="T-v2wSZh6R9Aq7Sud8xA-19" value="LOGIN&amp;nbsp; FORM" style="ellipse;whiteSpace=wrap;html=1;rounded=1;" vertex="1" parent="WIyWlLk6GJQsqaUBKTNV-1">
          <mxGeometry x="540" y="282.5" width="80" height="80" as="geometry" />
        </mxCell>
        <mxCell id="T-v2wSZh6R9Aq7Sud8xA-28" value="" style="edgeStyle=orthogonalEdgeStyle;rounded=0;orthogonalLoop=1;jettySize=auto;html=1;" edge="1" parent="WIyWlLk6GJQsqaUBKTNV-1" source="T-v2wSZh6R9Aq7Sud8xA-21" target="T-v2wSZh6R9Aq7Sud8xA-27">
          <mxGeometry relative="1" as="geometry" />
        </mxCell>
        <mxCell id="T-v2wSZh6R9Aq7Sud8xA-21" value="YES" style="whiteSpace=wrap;html=1;rounded=1;" vertex="1" parent="WIyWlLk6GJQsqaUBKTNV-1">
          <mxGeometry x="480" y="410" width="70" height="30" as="geometry" />
        </mxCell>
        <mxCell id="T-v2wSZh6R9Aq7Sud8xA-25" value="NO" style="rounded=1;whiteSpace=wrap;html=1;" vertex="1" parent="WIyWlLk6GJQsqaUBKTNV-1">
          <mxGeometry x="600" y="410" width="60" height="30" as="geometry" />
        </mxCell>
        <mxCell id="T-v2wSZh6R9Aq7Sud8xA-27" value="PROFILE PAGE" style="ellipse;whiteSpace=wrap;html=1;rounded=1;" vertex="1" parent="WIyWlLk6GJQsqaUBKTNV-1">
          <mxGeometry x="475" y="495" width="80" height="80" as="geometry" />
        </mxCell>
        <mxCell id="T-v2wSZh6R9Aq7Sud8xA-29" style="edgeStyle=orthogonalEdgeStyle;rounded=0;orthogonalLoop=1;jettySize=auto;html=1;entryX=0.917;entryY=0.929;entryDx=0;entryDy=0;entryPerimeter=0;" edge="1" parent="WIyWlLk6GJQsqaUBKTNV-1" source="T-v2wSZh6R9Aq7Sud8xA-25" target="T-v2wSZh6R9Aq7Sud8xA-4">
          <mxGeometry relative="1" as="geometry">
            <Array as="points">
              <mxPoint x="570" y="425" />
              <mxPoint x="570" y="600" />
              <mxPoint x="450" y="600" />
            </Array>
          </mxGeometry>
        </mxCell>
        <mxCell id="T-v2wSZh6R9Aq7Sud8xA-35" value="" style="edgeStyle=orthogonalEdgeStyle;rounded=0;orthogonalLoop=1;jettySize=auto;html=1;" edge="1" parent="WIyWlLk6GJQsqaUBKTNV-1" source="T-v2wSZh6R9Aq7Sud8xA-32" target="T-v2wSZh6R9Aq7Sud8xA-34">
          <mxGeometry relative="1" as="geometry" />
        </mxCell>
        <mxCell id="T-v2wSZh6R9Aq7Sud8xA-37" style="edgeStyle=orthogonalEdgeStyle;rounded=0;orthogonalLoop=1;jettySize=auto;html=1;entryX=0.5;entryY=0;entryDx=0;entryDy=0;" edge="1" parent="WIyWlLk6GJQsqaUBKTNV-1" source="T-v2wSZh6R9Aq7Sud8xA-32" target="T-v2wSZh6R9Aq7Sud8xA-36">
          <mxGeometry relative="1" as="geometry" />
        </mxCell>
        <mxCell id="T-v2wSZh6R9Aq7Sud8xA-32" value="LOGIN ?" style="rhombus;whiteSpace=wrap;html=1;rounded=1;" vertex="1" parent="WIyWlLk6GJQsqaUBKTNV-1">
          <mxGeometry x="700" y="265" width="80" height="80" as="geometry" />
        </mxCell>
        <mxCell id="T-v2wSZh6R9Aq7Sud8xA-43" style="edgeStyle=orthogonalEdgeStyle;rounded=0;orthogonalLoop=1;jettySize=auto;html=1;" edge="1" parent="WIyWlLk6GJQsqaUBKTNV-1" source="T-v2wSZh6R9Aq7Sud8xA-34" target="T-v2wSZh6R9Aq7Sud8xA-42">
          <mxGeometry relative="1" as="geometry" />
        </mxCell>
        <mxCell id="T-v2wSZh6R9Aq7Sud8xA-34" value="YES" style="whiteSpace=wrap;html=1;rounded=1;" vertex="1" parent="WIyWlLk6GJQsqaUBKTNV-1">
          <mxGeometry x="680" y="380" width="40" height="25" as="geometry" />
        </mxCell>
        <mxCell id="T-v2wSZh6R9Aq7Sud8xA-44" style="edgeStyle=orthogonalEdgeStyle;rounded=0;orthogonalLoop=1;jettySize=auto;html=1;fillColor=#d5e8d4;strokeColor=#82b366;" edge="1" parent="WIyWlLk6GJQsqaUBKTNV-1" source="T-v2wSZh6R9Aq7Sud8xA-36" target="T-v2wSZh6R9Aq7Sud8xA-5">
          <mxGeometry relative="1" as="geometry">
            <Array as="points">
              <mxPoint x="780" y="240" />
              <mxPoint x="580" y="240" />
            </Array>
          </mxGeometry>
        </mxCell>
        <mxCell id="T-v2wSZh6R9Aq7Sud8xA-36" value="NO" style="whiteSpace=wrap;html=1;rounded=1;" vertex="1" parent="WIyWlLk6GJQsqaUBKTNV-1">
          <mxGeometry x="760" y="380" width="40" height="25" as="geometry" />
        </mxCell>
        <mxCell id="T-v2wSZh6R9Aq7Sud8xA-66" style="edgeStyle=orthogonalEdgeStyle;rounded=0;orthogonalLoop=1;jettySize=auto;html=1;exitX=1;exitY=0;exitDx=0;exitDy=0;entryX=0;entryY=0.5;entryDx=0;entryDy=0;" edge="1" parent="WIyWlLk6GJQsqaUBKTNV-1" source="T-v2wSZh6R9Aq7Sud8xA-42" target="T-v2wSZh6R9Aq7Sud8xA-64">
          <mxGeometry relative="1" as="geometry" />
        </mxCell>
        <mxCell id="T-v2wSZh6R9Aq7Sud8xA-67" style="edgeStyle=orthogonalEdgeStyle;rounded=0;orthogonalLoop=1;jettySize=auto;html=1;exitX=1;exitY=1;exitDx=0;exitDy=0;" edge="1" parent="WIyWlLk6GJQsqaUBKTNV-1" source="T-v2wSZh6R9Aq7Sud8xA-42" target="T-v2wSZh6R9Aq7Sud8xA-65">
          <mxGeometry relative="1" as="geometry" />
        </mxCell>
        <mxCell id="T-v2wSZh6R9Aq7Sud8xA-42" value="CART&lt;div&gt;PAGE&lt;/div&gt;" style="ellipse;whiteSpace=wrap;html=1;aspect=fixed;" vertex="1" parent="WIyWlLk6GJQsqaUBKTNV-1">
          <mxGeometry x="620" y="510" width="80" height="80" as="geometry" />
        </mxCell>
        <mxCell id="T-v2wSZh6R9Aq7Sud8xA-48" value="" style="edgeStyle=orthogonalEdgeStyle;rounded=0;orthogonalLoop=1;jettySize=auto;html=1;" edge="1" parent="WIyWlLk6GJQsqaUBKTNV-1" source="T-v2wSZh6R9Aq7Sud8xA-45" target="T-v2wSZh6R9Aq7Sud8xA-47">
          <mxGeometry relative="1" as="geometry" />
        </mxCell>
        <mxCell id="T-v2wSZh6R9Aq7Sud8xA-45" value="PRODUCTS&lt;div&gt;PAGE&lt;/div&gt;" style="ellipse;whiteSpace=wrap;html=1;rounded=1;glass=0;strokeWidth=1;shadow=0;" vertex="1" parent="WIyWlLk6GJQsqaUBKTNV-1">
          <mxGeometry x="190" y="265" width="80" height="80" as="geometry" />
        </mxCell>
        <mxCell id="T-v2wSZh6R9Aq7Sud8xA-50" value="" style="edgeStyle=orthogonalEdgeStyle;rounded=0;orthogonalLoop=1;jettySize=auto;html=1;" edge="1" parent="WIyWlLk6GJQsqaUBKTNV-1" source="T-v2wSZh6R9Aq7Sud8xA-47" target="T-v2wSZh6R9Aq7Sud8xA-49">
          <mxGeometry relative="1" as="geometry" />
        </mxCell>
        <mxCell id="T-v2wSZh6R9Aq7Sud8xA-47" value="PRODUCT&amp;nbsp;&lt;div&gt;DETAIL&lt;/div&gt;&lt;div&gt;PAGE&lt;/div&gt;" style="ellipse;whiteSpace=wrap;html=1;rounded=1;glass=0;strokeWidth=1;shadow=0;" vertex="1" parent="WIyWlLk6GJQsqaUBKTNV-1">
          <mxGeometry x="190" y="390" width="80" height="80" as="geometry" />
        </mxCell>
        <mxCell id="T-v2wSZh6R9Aq7Sud8xA-52" value="" style="edgeStyle=orthogonalEdgeStyle;rounded=0;orthogonalLoop=1;jettySize=auto;html=1;" edge="1" parent="WIyWlLk6GJQsqaUBKTNV-1" source="T-v2wSZh6R9Aq7Sud8xA-49" target="T-v2wSZh6R9Aq7Sud8xA-51">
          <mxGeometry relative="1" as="geometry" />
        </mxCell>
        <mxCell id="T-v2wSZh6R9Aq7Sud8xA-49" value="ADD TO CART" style="whiteSpace=wrap;html=1;rounded=1;glass=0;strokeWidth=1;shadow=0;" vertex="1" parent="WIyWlLk6GJQsqaUBKTNV-1">
          <mxGeometry x="195" y="555" width="70" height="30" as="geometry" />
        </mxCell>
        <mxCell id="T-v2wSZh6R9Aq7Sud8xA-57" style="edgeStyle=orthogonalEdgeStyle;rounded=0;orthogonalLoop=1;jettySize=auto;html=1;exitX=0;exitY=1;exitDx=0;exitDy=0;" edge="1" parent="WIyWlLk6GJQsqaUBKTNV-1" source="T-v2wSZh6R9Aq7Sud8xA-51">
          <mxGeometry relative="1" as="geometry">
            <mxPoint x="180.0000000000001" y="720" as="targetPoint" />
          </mxGeometry>
        </mxCell>
        <mxCell id="T-v2wSZh6R9Aq7Sud8xA-58" style="edgeStyle=orthogonalEdgeStyle;rounded=0;orthogonalLoop=1;jettySize=auto;html=1;exitX=1;exitY=1;exitDx=0;exitDy=0;entryX=0.5;entryY=0;entryDx=0;entryDy=0;" edge="1" parent="WIyWlLk6GJQsqaUBKTNV-1" source="T-v2wSZh6R9Aq7Sud8xA-51" target="T-v2wSZh6R9Aq7Sud8xA-56">
          <mxGeometry relative="1" as="geometry" />
        </mxCell>
        <mxCell id="T-v2wSZh6R9Aq7Sud8xA-51" value="LOGIN ?" style="rhombus;whiteSpace=wrap;html=1;rounded=1;glass=0;strokeWidth=1;shadow=0;" vertex="1" parent="WIyWlLk6GJQsqaUBKTNV-1">
          <mxGeometry x="200" y="640" width="70" height="80" as="geometry" />
        </mxCell>
        <mxCell id="T-v2wSZh6R9Aq7Sud8xA-60" style="edgeStyle=orthogonalEdgeStyle;rounded=0;orthogonalLoop=1;jettySize=auto;html=1;" edge="1" parent="WIyWlLk6GJQsqaUBKTNV-1" source="T-v2wSZh6R9Aq7Sud8xA-61" target="T-v2wSZh6R9Aq7Sud8xA-42">
          <mxGeometry relative="1" as="geometry" />
        </mxCell>
        <mxCell id="T-v2wSZh6R9Aq7Sud8xA-55" value="YES" style="rounded=1;whiteSpace=wrap;html=1;" vertex="1" parent="WIyWlLk6GJQsqaUBKTNV-1">
          <mxGeometry x="150" y="720" width="60" height="30" as="geometry" />
        </mxCell>
        <mxCell id="T-v2wSZh6R9Aq7Sud8xA-56" value="NO" style="rounded=1;whiteSpace=wrap;html=1;" vertex="1" parent="WIyWlLk6GJQsqaUBKTNV-1">
          <mxGeometry x="354" y="670" width="60" height="30" as="geometry" />
        </mxCell>
        <mxCell id="T-v2wSZh6R9Aq7Sud8xA-62" value="" style="edgeStyle=orthogonalEdgeStyle;rounded=0;orthogonalLoop=1;jettySize=auto;html=1;" edge="1" parent="WIyWlLk6GJQsqaUBKTNV-1" source="T-v2wSZh6R9Aq7Sud8xA-55" target="T-v2wSZh6R9Aq7Sud8xA-61">
          <mxGeometry relative="1" as="geometry">
            <mxPoint x="210" y="735" as="sourcePoint" />
            <mxPoint x="700" y="550" as="targetPoint" />
          </mxGeometry>
        </mxCell>
        <mxCell id="T-v2wSZh6R9Aq7Sud8xA-61" value="ADD ITEM" style="rhombus;whiteSpace=wrap;html=1;" vertex="1" parent="WIyWlLk6GJQsqaUBKTNV-1">
          <mxGeometry x="660" y="695" width="80" height="80" as="geometry" />
        </mxCell>
        <mxCell id="T-v2wSZh6R9Aq7Sud8xA-63" style="edgeStyle=orthogonalEdgeStyle;rounded=0;orthogonalLoop=1;jettySize=auto;html=1;exitX=0.5;exitY=1;exitDx=0;exitDy=0;entryX=0.5;entryY=0;entryDx=0;entryDy=0;" edge="1" parent="WIyWlLk6GJQsqaUBKTNV-1" source="T-v2wSZh6R9Aq7Sud8xA-56" target="T-v2wSZh6R9Aq7Sud8xA-56">
          <mxGeometry relative="1" as="geometry" />
        </mxCell>
        <mxCell id="T-v2wSZh6R9Aq7Sud8xA-64" value="DELETE&lt;div&gt;ITEM&lt;/div&gt;" style="rounded=1;whiteSpace=wrap;html=1;" vertex="1" parent="WIyWlLk6GJQsqaUBKTNV-1">
          <mxGeometry x="740" y="470" width="70" height="40" as="geometry" />
        </mxCell>
        <mxCell id="T-v2wSZh6R9Aq7Sud8xA-65" value="CHECKOUT" style="rounded=1;whiteSpace=wrap;html=1;fillColor=#f8cecc;strokeColor=#b85450;" vertex="1" parent="WIyWlLk6GJQsqaUBKTNV-1">
          <mxGeometry x="720" y="600" width="70" height="40" as="geometry" />
        </mxCell>
        <mxCell id="T-v2wSZh6R9Aq7Sud8xA-72" value="" style="edgeStyle=orthogonalEdgeStyle;rounded=0;orthogonalLoop=1;jettySize=auto;html=1;" edge="1" parent="WIyWlLk6GJQsqaUBKTNV-1" source="T-v2wSZh6R9Aq7Sud8xA-69" target="T-v2wSZh6R9Aq7Sud8xA-71">
          <mxGeometry relative="1" as="geometry">
            <Array as="points">
              <mxPoint x="70" y="380" />
              <mxPoint x="35" y="380" />
            </Array>
          </mxGeometry>
        </mxCell>
        <mxCell id="T-v2wSZh6R9Aq7Sud8xA-74" style="edgeStyle=orthogonalEdgeStyle;rounded=0;orthogonalLoop=1;jettySize=auto;html=1;exitX=1;exitY=1;exitDx=0;exitDy=0;" edge="1" parent="WIyWlLk6GJQsqaUBKTNV-1" source="T-v2wSZh6R9Aq7Sud8xA-69" target="T-v2wSZh6R9Aq7Sud8xA-73">
          <mxGeometry relative="1" as="geometry" />
        </mxCell>
        <mxCell id="T-v2wSZh6R9Aq7Sud8xA-69" value="IS LOGIN ?" style="rhombus;whiteSpace=wrap;html=1;rounded=1;" vertex="1" parent="WIyWlLk6GJQsqaUBKTNV-1">
          <mxGeometry x="30" y="265" width="80" height="80" as="geometry" />
        </mxCell>
        <mxCell id="T-v2wSZh6R9Aq7Sud8xA-76" value="" style="edgeStyle=orthogonalEdgeStyle;rounded=0;orthogonalLoop=1;jettySize=auto;html=1;" edge="1" parent="WIyWlLk6GJQsqaUBKTNV-1" source="T-v2wSZh6R9Aq7Sud8xA-71" target="T-v2wSZh6R9Aq7Sud8xA-75">
          <mxGeometry relative="1" as="geometry" />
        </mxCell>
        <mxCell id="T-v2wSZh6R9Aq7Sud8xA-71" value="YES" style="whiteSpace=wrap;html=1;rounded=1;" vertex="1" parent="WIyWlLk6GJQsqaUBKTNV-1">
          <mxGeometry x="10" y="405" width="50" height="25" as="geometry" />
        </mxCell>
        <mxCell id="T-v2wSZh6R9Aq7Sud8xA-73" value="NO" style="whiteSpace=wrap;html=1;rounded=1;" vertex="1" parent="WIyWlLk6GJQsqaUBKTNV-1">
          <mxGeometry x="80" y="410" width="50" height="25" as="geometry" />
        </mxCell>
        <mxCell id="T-v2wSZh6R9Aq7Sud8xA-75" value="FAVORITE&lt;div&gt;PAGE&lt;/div&gt;" style="ellipse;whiteSpace=wrap;html=1;rounded=1;" vertex="1" parent="WIyWlLk6GJQsqaUBKTNV-1">
          <mxGeometry x="-5" y="482.5" width="80" height="80" as="geometry" />
        </mxCell>
        <mxCell id="T-v2wSZh6R9Aq7Sud8xA-77" style="edgeStyle=orthogonalEdgeStyle;rounded=0;orthogonalLoop=1;jettySize=auto;html=1;exitX=0.5;exitY=1;exitDx=0;exitDy=0;entryX=0.433;entryY=1.067;entryDx=0;entryDy=0;entryPerimeter=0;fillColor=#dae8fc;strokeColor=#6c8ebf;" edge="1" parent="WIyWlLk6GJQsqaUBKTNV-1" source="T-v2wSZh6R9Aq7Sud8xA-73" target="T-v2wSZh6R9Aq7Sud8xA-5">
          <mxGeometry relative="1" as="geometry">
            <Array as="points">
              <mxPoint x="105" y="520" />
              <mxPoint x="320" y="520" />
              <mxPoint x="320" y="250" />
              <mxPoint x="572" y="250" />
            </Array>
          </mxGeometry>
        </mxCell>
      </root>
    </mxGraphModel>
  </diagram>
</mxfile>
